<?xml version="1.0" encoding="UTF-8"?>
<svg id="Layer_1" xmlns="http://www.w3.org/2000/svg" version="1.1" viewBox="0 0 1512 1188">
  <!-- Generator: Adobe Illustrator 29.0.0, SVG Export Plug-In . SVG Version: 2.1.0 Build 186)  -->
  <path d="M705.6,359.1l-80.7,58.2s2,11-.3,31.5l-11.6,110c-2.3,20.4-6.5,35.9-6.5,35.9l43.5-31.4s-1.4-11.3,1-31.9l10.7-102.7c1.1-9.2,3.1-13.5,7.7-16.9l13.9-10c4.7-3.4,5.9-1.3,4.8,7.8l-10.7,102.7c-2.4,20.5-5.8,35.4-5.8,35.4l44.1-31.7s-2.6-10.5-.3-31l9.3-90.1c3.8-33.1-1.2-48.5-19.1-35.7"/>
  <path d="M568.2,457.6s2.1,10.9-.3,31.4l-10.7,102.7c-1.1,9.2-3.1,13.5-7.7,16.9l-13.8,10c-4.7,3.4-5.9,1.4-4.8-7.8l14.6-136.7-41.7,30s2.1,10.9-.2,31.4l-9.3,90.1c-3.8,33.1,1.2,48.5,19.1,35.7l80.4-58s-1.7-11.2.6-31.7l15.5-144-41.6,30Z"/>
  <path d="M467.4,530.9l-59.3,42.7c-17.1,12.3-23.5,29.6-27,60.6l-9.1,88.5c-3.6,30.9-.3,41.3,16.7,29l59.2-42.7c17.1-12.3,23.5-29.6,27.1-60.6l9.1-88.5c3.5-30.9.3-41.3-16.7-29M446.6,583.5l-10,96.1c-1,8.5-2.7,12.9-7.2,16.2l-15.8,11.4c-4.2,3-5.1.5-4.1-8l10-96.1c1-8.5,2.7-12.9,6.8-15.9l15.8-11.4c4.5-3.3,5.4-.7,4.4,7.8"/>
  <path d="M318.1,562.3l-60.9,224.7,19.6-194.9-51.5,37.3-127.6,331.4,46-32.8s2.7-17.5,4.3-22c1.6-4.4,68.8-183.8,68.8-183.8l-17.1,164,58.3-41.4,51.4-184.4s-14.4,130.5-15.3,139.1c-1,8.7-4.6,22.3-4.6,22.3l58.4-41.3s-1.6-15.4-1.1-20.4c.5-5,23.8-235.9,23.8-235.9l-52.4,38Z"/>
  <path d="M953.4,180.2c1.4,6,1.9,11.1-.4,31.6l-11.6,110c-2.3,20.5-5.2,35-5.2,35l42.9-30.9s-2-11,.3-31.5l15.5-144-41.5,29.9Z"/>
  <path d="M781.3,440.9c-6.8,4.8-7.3,2.9-6.2-6.5l11.3-108.1,30.3-21.8,3.3-29-30.3,21.8,3.7-32.2-38.2,29.3-3.5,30.3-16.3,11.7-3.3,29,16.2-11.7-10.7,102.7c-4.3,36.9,5.1,38.8,17.2,30.1l47.6-34.4,6.1-34.7s-6.6,8.5-14.1,13.8l-13.3,9.6Z"/>
  <path d="M1091.6,81l-80.8,58.3c1.4,5.9,2.6,10.5.3,30.8l-11.5,109.4c-2.3,20.3-4.5,34.2-4.5,34.2l40.6-29.3s-.7-11.8,1.6-32.2l10.7-102.1c1.1-9.1,3-13.4,7.7-16.7l13.8-9.9c4.7-3.3,5.9-1.4,4.8,7.7l-10.6,102.1c-2.4,20.4-5.6,35.1-5.6,35.1l42.5-30.6s-1.5-11.3.8-31.7l9.2-89.6c3.8-32.9-1.2-48.3-19-35.5"/>
  <path d="M911.2,209.6l-69.2,49.9-6.4,35.3s8.4-10.1,15.4-15.2l37.9-27.3c5.3-3.8,5.5-1.5,5.2,5.1-.5,13.4-3,16-7.2,19.1l-34.6,24.9c-17.1,12.3-24.2,34.1-27.8,64.9l-3,31c-3.6,30.9-.3,41.3,16.8,29l82.7-59.7s-2.3-9.9-.5-25.1l9.8-94.5c4.7-40.7-.8-50.6-19-37.4M885.5,345.8c-2.2,18.9-3.2,21.7-10.4,26.9l-8.9,6.4c-5.7,3.9-7.8,3.9-6.6-6.8l3.4-38.9c1.2-10.7,3.7-13.9,9.5-18.4l16.9-12.2-3.9,43Z"/>
  <path d="M399,845.5c9.5-45.6,10.3-66,4.2-77.8l181.3-127c52.5-37.2,65.4-11,51.3,87.4l-17.1,152.9c-5,45.3-32.9,80.2-85.4,117.4l-192,136c7.3-22.2,11.3-41.5,19.6-88.7l38.1-200.1ZM458,979.3l49.1-34.8c15.5-10.9,18.7-19.3,23.4-51.9l17-118.5c4.6-32.5,3.3-37.7-12.2-26.7l-41.2,28.2-36.1,203.8Z"/>
  <path d="M736.3,729.2l-4.1,32.8c-2.8,25.1,1.7,31.4,16.4,21l87.7-62.1c17.4-12.4,26.9-21.1,43.2-44.2l-17.3,88.4-181.5,128.7c-40.9,29-48.5,4.4-39.4-68.7l17.2-138.7c9.1-73.1,24.7-114.1,65.7-143.1l138.6-98.2c41-29,48.5-4.4,39.4,68.7l-13.3,107.4-152.6,108.1ZM808.5,615.4l5.9-47.7c2.5-20.1.5-26.2-9.6-19.1l-37.4,26.5c-10.1,7.1-14.1,17.5-16.7,37.6l-5.9,47.8,63.7-45.2Z"/>
  <path d="M1292.1,208.3c8.8-19.2,20.2-46.3,24.5-59.5,3.7-11.5,6.7-22.4,6.6-30.5l90.6-64.1c-26,40.9-51.8,92.4-64.8,121.4l-162.8,359.5-113.4,80.4,34.3-267.9-.9.6-119.1,327.9-95.4,67.6,33-262.8c6.9-53.9,6.2-61.5,4-83.1l107.4-76c-3.8,11.5-6.7,19.7-9.6,32-4.6,18.8-6,32.8-7.5,45.3l-17.9,151.5.8-.6,99.7-274.6,126-89.3-28.1,224,.9-.7,91.9-201.1Z"/>
</svg>