<?xml version="1.0" encoding="UTF-8"?>
<svg id="Layer_1" xmlns="http://www.w3.org/2000/svg" version="1.1" viewBox="0 0 976.1 594.8">
  <!-- Generator: Adobe Illustrator 29.0.0, SVG Export Plug-In . SVG Version: 2.1.0 Build 186)  -->
  <path d="M694.8,205.6h33c5.5-7.2,7.4-19.5,16.1-23.7,4.5-2.2,22-2.4,27.3-1.6,12.5,2,.2,18.2-.4,25.3,3.6.7,7-.8,10.4-.9,48.8-1.7,97.2,3.1,145.6-3.7,8.3-1.2,20.9-5.2,28.2-5.4s4.5.6,6.7,1.1c1.2,7.7-2.3,15.1-5.6,21.8-3.7,7.7-11.5,20.9-20.2,23.2-42.6,11.8-111.9,1.8-157.3.9-4.1,0-21.6-.6-23.6.9s-4.3,8.9-5.2,11.1c-13,30-33.4,76-39.3,107.2s-2.7,18.2,8.8,13.3c15.3-6.5,35.1-43,42.3-58.1,3.5-7.4,5.6-23.9,15.2-12,12.9,16.1,3.7,30-4.5,45.2-12.6,23.2-38.7,58.6-67.9,58.8-16.6.1-25.3-14.9-24.9-29.9-1.6-.4-1.8.7-2.7,1.3-3.6,2.7-7.2,8.3-10.8,11.8-6.8,6.4-16,13.2-25.3,15.4-24,5.7-33.4-9.5-34.4-31.2-12.9,11.7-25.2,27.6-43.4,31.2-19.3,3.8-42.1-6.8-44.4-28.1s16.7-68.7,30.6-90.6c2.9-4.5,6.9-8.4,12.4-9.3s26.5.2,26.6,6.7c-6.5,17.3-15.2,33.8-21.1,51.3-2.1,6.3-9.6,31.1-7.4,36s7.4,2.4,10.7.8c22.7-11.2,46.7-70.2,55.3-93.9,4.5-12.3,11.1-29.7,14-42.1s0-1.1-1.2-1.2c-7.7-.9-17.9,2.1-24.4.9s-4.6-3.3-4.9-5.2,8.5-18.5,10.7-20.6c7.9-7.5,23.5-3,33-6.8,5.9-7.3,8.1-21.3,17.7-24.8s23.2-2.2,28,0c7.8,3.7-3.7,18.8-3.6,24.8ZM637.1,375.4c6.9,5.9,21.9-12.3,25.5-17,25.9-34.3,33.8-76.5,50.1-115.4l-.7-2.5-31.1-2.1-1.4,1.3c-10.5,34.7-27.6,67.8-37.6,102.6-2.2,7.6-5.9,20-6,27.5s.2,4.8,1.2,5.7Z"/>
  <path d="M163.6,183c-31.2,15.3-56.3,40.7-76.7,68.4s-24.5,38.9-36.4,58.7c-.6.6-1.2.2-1.8,0-1.8-.4-16.4-8.7-18-10.1s-5.2-6.4-5.5-8.9c-2.4-17.1,5.4-31.8,13.5-46.3,22.6-40.5,63-81.8,107.9-96.6,59-19.4,116.4-8.6,144.5,50.9,44.3,93.9-31.5,199-118.1,234.1-42.4,17.2-90.3,5.6-87-48.1,3.8-61.8,47.1-135,73.1-190.9.7-1.6,5.3-10.5,4.7-11.2ZM219,174.1c-10.6,14.4-18.9,30.6-27.2,46.5-22.2,42.8-55.7,105.6-67.7,151.1-2.5,9.4-8.6,35-1.2,42.3,8,7.8,30.9-4.5,39.3-8.8,63.7-32.8,120.4-110.8,99.8-185.4-4.9-17.7-23.7-43.4-43-45.8Z"/>
  <path d="M443,274.6c5.4,4.3-3.7,15.9-4.3,21.4l14.2-12.5c20.6-16.7,46.7-15.4,57.1,11.4,14.9,38.6-11.1,96.3-50.2,110.3-15.8,5.7-42,5.4-48.4-13.6s-1.9-11.6,3.8-18.3c2.5-2.9,18.5-16.5,20.7-9.8-1.2,15.1,7.3,17.3,16.9,6.7,11.5-12.9,21.9-41.1,20.2-58.2-2.6-27.2-29,3.8-35.5,12.2-19.6,25.3-33.4,53.2-44.4,83.1-8,21.9-18.9,57-11.9,79.7,1.8,5.8,6.9,7.4-1.3,12.9s-21.5,3.7-27.1-1.7c-14.5-14.1-6.4-55.5-2.3-73.7.8-3.3,7-22.2,5.9-23.5-5.4,2-10.5,5.6-16.2,6.8-18,3.7-37.8-4.1-43.5-22.6-6.9-22.3,8.3-55.6,18.4-75.7s11.6-22.9,15.9-26.6c6.4-5.3,28-4.6,33.4,3l-.3,3c-8.8,22.6-22.2,47.2-26.5,71.2-1.7,9.3-4.4,20.7,9.2,14.6s31.1-36.1,37.5-49.3,14.4-38.6,22.7-47.8c2.9-3.2,8.1-4.6,12.2-4.9s20.9-.2,23.7,2.1Z"/>
  <path d="M362.5,221.2c11.9-1.7,21.2,15.2,21.1,25.5s-13.2,28.1-24.9,27.7c-7.1-.3-16.9-6-18.4-13.4-2.4-11.7,9.5-38,22.2-39.8Z"/>
  <path d="M586,221.2c9.4-1.2,18.7,11,20,19.3,3.1,18.2-15.6,41.7-35,30.4-17.8-10.4-.3-47.8,14.9-49.7Z"/>
</svg>