<?xml version="1.0" encoding="UTF-8"?>
<svg id="Logo__x26__Claims" xmlns="http://www.w3.org/2000/svg" version="1.1" viewBox="0 0 936 720">
  <!-- Generator: Adobe Illustrator 29.0.0, SVG Export Plug-In . SVG Version: 2.1.0 Build 186)  -->
  <path d="M875.3,448.2c9.8,0,17.8,7.9,17.8,17.8s-7.9,17.8-17.8,17.8-17.8-7.9-17.8-17.8,7.9-17.8,17.8-17.8ZM875.3,479.9c8.1,0,13.7-6.1,13.7-13.9s-5.6-13.9-13.7-13.9-13.7,6.1-13.7,13.9,5.6,13.9,13.7,13.9ZM868.3,456.1h7.6c5,0,7.7,1.6,7.7,5.8s-2.2,5-5.2,5.4l5.3,8.7h-4.4l-5-8.7h-2.2v8.7h-3.8v-19.9ZM875.5,464.5c2.1,0,4-.3,4-3s-2.3-2.7-3.9-2.7h-3.4v5.8h3.4Z"/>
  <g>
    <g>
      <path d="M724.2,191.4h-57.3c-8.3,0-14.9,4.1-17.2,13.3l-32.2,134.7c-8.2,34.5-26.9,57.8-49.1,57.8s-25.1-10.2-19.3-38.4c3.3-15.8,39.6-167.5,39.6-167.5h-56.8c-8.2,0-15,4.1-17.4,13.3l-38.5,160.7c-6.3,16.8-20.6,31.8-35.1,31.8s-20.9-13.1-17.1-32.6c3-15.1,40.5-172.1,40.9-173.3h-50.6c-8.1,0-15.2,4-17.7,13.3l-3.7,15.2c-5.6-22.3-23.2-35-49.5-35-75.3,0-124.9,99.6-125.6,187.5-.4,50.8,26.7,73.7,61.9,73.7s60.2-17.6,76.7-44.9c4.7,28.9,22.6,44.9,52.2,44.9s52.9-15.7,69.7-43.9c4.2,26.5,21.1,43.9,54.9,43.9s54.8-15.7,70.5-41.2c-1.6,7.4-12.5,53.8-12.5,53.8-84.1,27.3-164.7,64.7-164.7,108.8s28.4,45.2,71.8,45.2c76.5,0,137.4-47.3,161.6-148.2l64.8-273.3ZM364.6,326.2c-13.6,48.4-31,71.1-52.4,71.1s-23.8-10-23.8-29.3c0-56.5,33-143.6,65.2-143.3,28.2.2,26,48.1,11,101.6ZM572.4,529.2c-9.4,28.6-29.7,50.3-58.8,50.3-21.5,0-32.1-12.9-26-30.6,6.5-19,39.3-38,96.2-61.4-2.7,11.4-6.7,27.6-11.3,41.6Z"/>
      <path d="M147.4,476.5l76.5-325.9c3.8-16.2-5.3-27.1-21.3-27.2l-67-.6c2.4,14.4,2.1,24.9-4.8,55,0,0-41.8,180.9-71.3,308.8-3.8,16.6-10.5,37.6-14.5,46,24.8-3.4,62.3-6.1,97.9-6.1,60.4,0,101.4,8.1,138.8,8.1s76.6-30.1,69.1-69.1c-12.8,9.5-28.1,14.5-55.4,14.5-48.4,0-96-8.5-147.9-3.4Z"/>
      <path d="M826.9,221.9c17.6,0,29.2,11.6,46.6,11.6s31.2-14.8,35.5-30.3c-18.8-10.1-42.2-17.8-69.2-17.8-63.5,0-100.7,32.5-100.7,80.3s76.1,85.8,76.1,121.8-9.4,21.8-26.7,21.8c-27.1,0-37.7-15.8-57.6-15.8s-27.4,12.9-33.4,27.8c12.6,11,44.3,24.9,78.6,24.9,71.4,0,100.3-42,100.3-79.3,0-58.3-75.7-81.3-75.7-120.5s8.9-24.5,26.2-24.5Z"/>
    </g>
    <path d="M790.1,138.7c0-18-14.6-29-30.8-24.1-12.5,3.7-21.2,16.4-15.7,36.8,2.2,8,5.2,15.7,4,23.5-.4,2.6-1.4,5.4-3.5,7.6.4,1.2,2.4,2.5,5.7,2.5,22.3,0,40.3-23.6,40.3-46.3Z"/>
  </g>
</svg>