<?xml version="1.0" encoding="UTF-8"?>
<svg id="Layer_1" xmlns="http://www.w3.org/2000/svg" version="1.1" viewBox="0 0 1078 296">
  <!-- Generator: Adobe Illustrator 29.0.0, SVG Export Plug-In . SVG Version: 2.1.0 Build 186)  -->
  <defs>
    <style>
      .st0 {
        fill: #00efaf;
      }
    </style>
  </defs>
  <g>
    <polygon points="400.4 187.2 400.4 124 385.9 124 386 162.3 354.5 124 342.4 124.1 342.5 187.3 356.9 187.2 356.9 148.9 388.4 187.2 400.4 187.2"/>
    <path d="M468.1,187.1l-14.1-20.2s0,0,.1,0c4.1-1.8,7.2-4.4,9.5-7.8,2.2-3.4,3.3-7.5,3.3-12.1,0-4.8-1.1-8.8-3.4-12.3-2.2-3.4-5.4-6.1-9.5-7.9-4.1-1.8-9-2.7-14.6-2.7h-27.4s0,63.2,0,63.2h14.6s0-17.6,0-17.6h12.7c.2,0,.5,0,.7,0l12.2,17.6h15.8ZM448.8,138.7c2.2,1.9,3.3,4.6,3.3,8.1,0,3.4-1.1,6.1-3.3,8.1-2.2,2-5.6,2.9-10.1,2.9h-11.9s0-22,0-22h11.9c4.5,0,7.9.9,10.1,2.9Z"/>
    <polygon points="521.4 123.8 502 169 482.7 123.9 466.9 123.9 494.2 187.1 508.7 187.1 536 123.8 521.4 123.8"/>
    <polygon points="586.9 175.2 552.5 175.3 552.5 160.6 581.9 160.6 581.9 149.2 552.5 149.3 552.5 135.5 585.7 135.5 585.7 123.8 537.9 123.8 538 187 587 187 586.9 175.2"/>
    <path d="M636.3,187.2c-4.6,0-8.9-.8-13-2.5-4.1-1.7-7.2-3.8-9.3-6.4l1.3-1.2c2,2.3,4.9,4.3,8.6,5.9,3.8,1.6,7.8,2.4,12.2,2.4,4.6,0,8.3-.6,11.2-1.9,2.9-1.3,5.1-3,6.5-5.1,1.4-2.1,2.1-4.5,2.1-7.1,0-3-.7-5.4-2.2-7.3-1.4-1.8-3.4-3.3-5.8-4.3-2.4-1-5-1.9-7.9-2.6-2.8-.7-5.7-1.4-8.5-2.1-2.9-.7-5.5-1.7-7.9-2.8-2.4-1.2-4.3-2.8-5.8-4.8-1.4-2-2.2-4.7-2.2-8,0-2.8.7-5.4,2.2-7.8,1.5-2.4,3.8-4.4,6.9-5.9,3.1-1.5,7.1-2.3,12.1-2.3,3.4,0,6.7.5,10,1.6,3.3,1.1,6.1,2.4,8.4,4.2l-1,1.4c-2.5-1.9-5.3-3.2-8.4-4.1-3.1-.9-6-1.3-8.8-1.3-4.4,0-8,.7-10.9,2-2.9,1.3-5,3-6.4,5.2-1.4,2.1-2.1,4.5-2.1,7.2,0,3.1.7,5.5,2.2,7.4,1.4,1.8,3.4,3.3,5.8,4.3,2.4,1.1,5,1.9,7.9,2.6,2.9.7,5.7,1.4,8.5,2.2,2.8.8,5.4,1.7,7.9,2.9,2.4,1.2,4.3,2.7,5.8,4.7,1.4,2,2.2,4.6,2.2,7.9,0,2.8-.7,5.4-2.2,7.8-1.5,2.4-3.8,4.4-7,5.8-3.2,1.5-7.3,2.2-12.3,2.2Z"/>
    <path d="M661.9,141.9v-1.7s26.6,0,26.6,0v1.7s-26.6,0-26.6,0ZM682.3,187.1c-3.7,0-6.5-1-8.4-3.2-1.9-2.1-2.9-4.9-2.9-8.3v-45.7c0,0,1.8,0,1.8,0v45.2c0,3.3.9,5.8,2.5,7.6,1.6,1.7,4,2.6,7.1,2.6,3.1,0,5.7-1,7.8-2.9l1.3,1.3c-1.1,1.1-2.5,2-4.1,2.5-1.7.5-3.3.8-5,.8Z"/>
    <path d="M720.7,187.1c-4,0-7.4-.7-10.2-2.2-2.9-1.5-5.1-3.7-6.6-6.5-1.5-2.9-2.3-6.4-2.3-10.7v-27.5s1.8,0,1.8,0v27.5c0,5.8,1.5,10.2,4.6,13.2,3,3,7.3,4.5,12.7,4.5,3.9,0,7.3-.8,10.1-2.5,2.8-1.7,5-4,6.5-7,1.5-3,2.2-6.5,2.2-10.4v-25.4s1.8,0,1.8,0v46.7c0,0-1.7,0-1.7,0v-13.2s.2.3.2.3c-1.3,4-3.6,7.2-6.8,9.6-3.2,2.4-7.3,3.6-12.1,3.6Z"/>
    <path d="M775.9,187c-4.3,0-8.1-1-11.6-3s-6.1-4.8-8.1-8.4c-2-3.6-3-7.7-3-12.2,0-4.6,1-8.7,3-12.2,2-3.5,4.7-6.3,8.1-8.3,3.4-2,7.3-3,11.6-3,4.3,0,8.1,1,11.5,3,3.4,2,6,4.8,8,8.3,2,3.5,2.9,7.6,2.9,12.2,0,4.6-1,8.7-2.9,12.2-2,3.6-4.6,6.4-8,8.4-3.4,2-7.2,3-11.5,3ZM775.9,185.3c4,0,7.5-.9,10.7-2.8,3.2-1.9,5.6-4.5,7.4-7.8s2.7-7.1,2.7-11.4c0-4.3-.9-8.1-2.7-11.4-1.8-3.3-4.3-5.8-7.5-7.7-3.2-1.8-6.7-2.7-10.7-2.7s-7.5.9-10.7,2.8c-3.1,1.8-5.6,4.4-7.4,7.7-1.8,3.3-2.7,7.1-2.7,11.4,0,4.3.9,8.1,2.8,11.4,1.8,3.3,4.3,5.9,7.5,7.8,3.1,1.9,6.7,2.8,10.7,2.8ZM796.8,186.7v-17.2s.9-6.3.9-6.3l-.9-6.3v-37.2s1.8,0,1.8,0v67c0,0-1.7,0-1.7,0Z"/>
    <path d="M816.9,127.1c-.6,0-1.1-.2-1.6-.7-.5-.5-.7-1-.7-1.6,0-.7.2-1.2.7-1.7.5-.5,1-.7,1.6-.7.7,0,1.2.2,1.7.7.5.5.7,1,.7,1.7,0,.6-.2,1.1-.7,1.6-.5.5-1,.7-1.7.7ZM816.1,186.7v-46.7c0,0,1.8,0,1.8,0v46.7c0,0-1.8,0-1.8,0Z"/>
    <path d="M852.6,186.9c-4.3,0-8.2-1-11.6-3-3.4-2-6.1-4.8-8.1-8.4-2-3.6-3-7.7-3-12.2,0-4.6,1-8.7,3-12.2,2-3.5,4.7-6.3,8.1-8.3,3.4-2,7.3-3,11.6-3,4.3,0,8.2,1,11.7,3,3.4,2,6.1,4.8,8.1,8.3,2,3.5,2.9,7.6,2.9,12.2,0,4.6-1,8.7-2.9,12.2-2,3.6-4.6,6.4-8.1,8.4-3.4,2-7.3,3-11.6,3ZM852.6,185.2c4,0,7.5-.9,10.7-2.8,3.2-1.9,5.6-4.5,7.4-7.8,1.8-3.3,2.7-7.1,2.7-11.4,0-4.3-.9-8.1-2.7-11.4-1.8-3.3-4.3-5.8-7.5-7.7-3.2-1.8-6.7-2.7-10.7-2.7s-7.5.9-10.7,2.8c-3.1,1.8-5.6,4.4-7.4,7.7-1.8,3.3-2.7,7.1-2.7,11.4,0,4.3.9,8.1,2.8,11.4,1.8,3.3,4.3,5.9,7.5,7.8,3.1,1.9,6.7,2.8,10.7,2.8Z"/>
    <path d="M898,186.9c-3.8,0-7.3-.6-10.7-1.8s-5.8-2.7-7.6-4.6l1.1-1.4c1.7,1.6,4,3,7,4.3,3,1.2,6.4,1.8,10.1,1.8,5.5,0,9.5-1,11.9-2.9,2.4-1.9,3.6-4.4,3.6-7.5,0-2.2-.6-4-1.7-5.3-1.1-1.3-2.7-2.3-4.6-3-1.9-.7-4-1.2-6.3-1.7-2.3-.4-4.6-.9-6.9-1.3-2.3-.5-4.4-1.2-6.3-2-1.9-.9-3.4-2.1-4.6-3.6-1.1-1.5-1.7-3.6-1.7-6.2,0-2.1.6-4.1,1.7-5.9,1.1-1.8,2.9-3.3,5.4-4.4,2.4-1.1,5.6-1.7,9.4-1.7,2.9,0,5.7.4,8.6,1.3,2.8.9,5.1,2,6.9,3.5l-1.1,1.4c-1.9-1.5-4.1-2.6-6.6-3.4-2.5-.7-5.1-1.1-7.8-1.1-5.1,0-8.8,1-11.1,3-2.3,2-3.5,4.4-3.5,7.3,0,2.3.6,4.1,1.7,5.5,1.1,1.4,2.7,2.4,4.6,3.1,1.9.7,4,1.3,6.3,1.7,2.3.4,4.6.9,6.8,1.3,2.3.5,4.3,1.1,6.2,2,1.9.8,3.4,2,4.6,3.5,1.1,1.5,1.7,3.5,1.7,6,0,2.3-.6,4.4-1.9,6.3-1.3,1.8-3.2,3.3-5.7,4.3-2.6,1-5.8,1.5-9.7,1.5Z"/>
  </g>
  <path class="st0" d="M281,103.3l-39.5-38.5c-4.1-4-10.9-.7-10.3,5l3.3,33.1-29.9-60.2c-.2-.4-.4-.7-.6-1-1.9-2.5-5.4-3.2-8.2-1.4l-38.5,25.1c-1.4.9-2.3,2.3-2.7,3.9l-34.7,178.1c-1.1,5.7,5.7,9.6,10,5.7l61.6-54.5,3.3-2.9c1.3-1.2,2.1-2.8,2.1-4.6l1.9-40.8,19.1,35.3c.5.9,1.2,1.7,2.1,2.2l53.4,34.4c4.1,2.6,9.4-.3,9.4-5.1v-109.4c0-1.6-.7-3.2-1.8-4.4Z"/>
</svg>