<?xml version="1.0" encoding="UTF-8"?>
<svg id="Layer_1" xmlns="http://www.w3.org/2000/svg" version="1.1" viewBox="0 0 1920 1920">
  <!-- Generator: Adobe Illustrator 29.0.0, SVG Export Plug-In . SVG Version: 2.1.0 Build 186)  -->
  <defs>
    <style>
      .st0 {
        fill: #00efaf;
      }
    </style>
  </defs>
  <path class="st0" d="M1507.4,634.7l-291.1-284.2c-30.1-29.4-80.5-5.1-76.2,36.8l24.6,244.1-220.6-444c-1.4-2.7-2.9-5.2-4.7-7.4-14-18.2-40.2-23.3-60.2-10.3l-284.1,184.9c-10.3,6.7-17.3,17.2-19.7,29.1l-256.1,1314.1c-8.2,42.2,41.8,70.9,74,42.3l454.1-402,24.5-21.7c9.7-8.6,15.2-20.8,15.2-33.7l14.2-301.3,141,260.5c3.7,6.7,8.9,12.3,15.3,16.4l393.9,253.5c30,19.3,69.4-2.2,69.4-37.8v-807.1c0-12.1-4.9-23.7-13.6-32.2Z"/>
</svg>