<?xml version="1.0" encoding="UTF-8"?>
<svg id="Layer_1" xmlns="http://www.w3.org/2000/svg" version="1.1" viewBox="0 0 1080 174">
  <!-- Generator: Adobe Illustrator 29.0.0, SVG Export Plug-In . SVG Version: 2.1.0 Build 186)  -->
  <path d="M167.5,130.9V48.7c0,0,15.6,0,15.6,0l48.6,59.1h-7.6s0-59.2,0-59.2h18.8s0,82.2,0,82.2h-15.6s-48.7-59.1-48.7-59.1h7.6s0,59.2,0,59.2h-18.8Z"/>
  <path d="M258.2,130.8V48.6c0,0,35.5,0,35.5,0,7.4,0,13.7,1.2,19,3.6,5.3,2.4,9.4,5.8,12.3,10.3s4.4,9.8,4.4,16c0,6.1-1.4,11.4-4.3,15.8-2.9,4.4-7,7.8-12.3,10.2-5.3,2.4-11.7,3.5-19,3.5h-25s8.4-8.3,8.4-8.3v31.2s-19,0-19,0ZM277.2,101.7l-8.5-8.9h24c5.9,0,10.3-1.3,13.1-3.9,2.9-2.5,4.3-6.1,4.3-10.5,0-4.5-1.5-8.1-4.4-10.6-2.9-2.5-7.3-3.7-13.2-3.7h-24s8.4-9,8.4-9v46.6ZM310.4,130.8l-20.6-29.8h20.3s20.8,29.8,20.8,29.8h-20.6Z"/>
  <path d="M364.9,130.7l-35.6-82.2h20.6s31.1,72.7,31.1,72.7h-12.1s31.4-72.8,31.4-72.8h18.9s-35.5,82.2-35.5,82.2h-18.8Z"/>
  <path d="M440.8,115.3h44.7c0,0,0,15.2,0,15.2h-63.6c0,0,0-82.1,0-82.1h62.1c0,0,0,15.2,0,15.2h-43.2c0,0,0,51.7,0,51.7ZM439.3,81.5h39.6s0,14.7,0,14.7h-39.6s0-14.7,0-14.7Z"/>
  <path d="M549.7,130.8c-6,0-11.6-1.1-16.9-3.3s-9.3-5-12-8.3l1.6-1.5c2.6,3,6.3,5.6,11.2,7.7,4.9,2.1,10.2,3.2,15.9,3.2,5.9,0,10.8-.8,14.6-2.5,3.8-1.6,6.6-3.9,8.4-6.6,1.8-2.8,2.8-5.9,2.7-9.2,0-3.9-.9-7.1-2.8-9.5-1.9-2.4-4.4-4.3-7.5-5.6-3.1-1.4-6.5-2.5-10.2-3.4-3.7-.9-7.4-1.8-11.1-2.7-3.7-.9-7.1-2.2-10.3-3.7-3.1-1.5-5.6-3.6-7.5-6.3-1.9-2.7-2.8-6.1-2.8-10.4,0-3.6.9-7,2.9-10.1,1.9-3.1,4.9-5.7,8.9-7.6,4-2,9.3-2.9,15.7-3,4.4,0,8.7.7,13,2,4.3,1.4,7.9,3.2,10.9,5.4l-1.3,1.9c-3.3-2.4-6.9-4.2-10.9-5.4-4-1.2-7.8-1.8-11.5-1.7-5.7,0-10.5.9-14.2,2.5-3.8,1.7-6.5,3.9-8.3,6.7-1.8,2.8-2.7,5.9-2.7,9.3,0,4,.9,7.2,2.8,9.6,1.9,2.4,4.4,4.3,7.5,5.6,3.1,1.4,6.6,2.5,10.3,3.4,3.7.9,7.4,1.8,11.1,2.8,3.7,1,7.1,2.2,10.2,3.7,3.1,1.5,5.6,3.6,7.5,6.2,1.9,2.6,2.8,6,2.8,10.2,0,3.6-1,7-2.9,10.1-2,3.1-5,5.7-9.2,7.6-4.1,1.9-9.5,2.9-16,2.9Z"/>
  <path d="M583,71.9v-2.2s34.6,0,34.6,0v2.2s-34.6,0-34.6,0ZM609.5,130.7c-4.8,0-8.4-1.4-10.9-4.1-2.5-2.7-3.8-6.3-3.8-10.8v-59.4c0,0,2.3,0,2.3,0v58.8c0,4.3,1.1,7.6,3.3,9.9,2.1,2.3,5.2,3.4,9.3,3.4,4.1,0,7.4-1.3,10.1-3.8l1.6,1.6c-1.4,1.5-3.2,2.6-5.3,3.3-2.2.7-4.3,1.1-6.5,1.1Z"/>
  <path d="M659.4,130.7c-5.2,0-9.6-.9-13.3-2.9-3.7-1.9-6.6-4.7-8.6-8.5-2-3.8-3-8.4-3-13.9v-35.8s2.3,0,2.3,0v35.8c0,7.5,2,13.2,5.9,17.1,3.9,3.9,9.4,5.9,16.6,5.9,5.1,0,9.5-1.1,13.1-3.2,3.7-2.2,6.5-5.2,8.4-9.1,2-3.9,2.9-8.4,2.9-13.5v-33s2.3,0,2.3,0v60.7c0,0-2.3,0-2.3,0v-17.1s.2.4.2.4c-1.7,5.2-4.7,9.4-8.9,12.5-4.2,3.1-9.5,4.6-15.7,4.7Z"/>
  <path d="M731.3,130.6c-5.6,0-10.6-1.3-15-3.9-4.5-2.6-8-6.3-10.6-10.9-2.6-4.7-3.9-10-3.9-15.9,0-6,1.3-11.3,3.9-15.9,2.6-4.6,6.1-8.2,10.6-10.8,4.5-2.6,9.5-3.9,15-4,5.6,0,10.5,1.3,14.9,3.9,4.4,2.6,7.9,6.2,10.4,10.8,2.5,4.6,3.8,9.9,3.8,15.9,0,6-1.3,11.3-3.8,15.9-2.5,4.7-6,8.3-10.4,10.9-4.4,2.6-9.4,3.9-14.9,4ZM731.3,128.4c5.2,0,9.8-1.2,13.9-3.7,4.1-2.4,7.3-5.8,9.7-10.1,2.3-4.3,3.5-9.2,3.5-14.8,0-5.6-1.2-10.6-3.5-14.9-2.4-4.3-5.6-7.6-9.7-10-4.1-2.4-8.8-3.6-13.9-3.6s-9.8,1.2-13.9,3.6c-4.1,2.4-7.3,5.7-9.7,10-2.4,4.3-3.6,9.2-3.6,14.9,0,5.6,1.2,10.5,3.6,14.8,2.4,4.3,5.6,7.7,9.7,10.1,4.1,2.4,8.7,3.6,13.9,3.6ZM758.4,130.2v-22.3s1.1-8.2,1.1-8.2l-1.2-8.2v-48.4c0,0,2.3,0,2.3,0v87.1c.1,0-2.2,0-2.2,0Z"/>
  <path d="M784.6,52.7c-.8,0-1.5-.3-2.1-.9-.6-.6-.9-1.3-.9-2.1,0-.9.3-1.6.9-2.2.6-.6,1.3-.9,2.1-.9.9,0,1.6.3,2.2.9s.9,1.3.9,2.2c0,.8-.3,1.5-.9,2.1-.6.6-1.3.9-2.2.9ZM783.5,130.2v-60.7c0,0,2.3,0,2.3,0v60.7c0,0-2.3,0-2.3,0Z"/>
  <path d="M831,130.5c-5.6,0-10.7-1.3-15.1-3.9-4.4-2.6-7.9-6.3-10.5-10.9-2.6-4.7-3.9-10-3.9-15.9,0-6,1.3-11.3,3.9-15.9,2.6-4.6,6.1-8.2,10.5-10.8,4.4-2.6,9.4-3.9,15.1-4s10.7,1.3,15.2,3.9c4.5,2.6,8,6.2,10.5,10.8,2.5,4.6,3.8,9.9,3.8,15.9,0,6-1.3,11.3-3.8,15.9-2.5,4.7-6,8.3-10.5,10.9-4.5,2.6-9.5,3.9-15.1,4ZM831,128.3c5.2,0,9.8-1.2,13.9-3.7,4.1-2.4,7.3-5.8,9.7-10.1,2.3-4.3,3.5-9.2,3.5-14.8,0-5.6-1.2-10.6-3.5-14.9-2.4-4.3-5.6-7.6-9.7-10-4.1-2.4-8.8-3.6-13.9-3.6s-9.8,1.2-13.9,3.6c-4.1,2.4-7.3,5.7-9.7,10-2.4,4.3-3.6,9.2-3.6,14.9,0,5.6,1.2,10.5,3.6,14.8,2.4,4.3,5.6,7.7,9.7,10.1,4.1,2.4,8.7,3.6,13.9,3.6Z"/>
  <path d="M890.1,130.4c-4.9,0-9.6-.8-13.9-2.3-4.3-1.6-7.6-3.6-9.9-6l1.4-1.9c2.2,2.1,5.2,4,9.2,5.6,3.9,1.6,8.3,2.4,13.2,2.4,7.2,0,12.4-1.3,15.5-3.8,3.1-2.5,4.7-5.8,4.7-9.8,0-2.9-.8-5.2-2.2-6.9-1.5-1.7-3.5-3-5.9-3.9-2.5-.9-5.2-1.6-8.2-2.2-3-.5-6-1.1-8.9-1.8-3-.6-5.7-1.5-8.2-2.6-2.5-1.1-4.4-2.7-5.9-4.7-1.5-2-2.2-4.7-2.2-8,0-2.7.7-5.3,2.2-7.6,1.5-2.4,3.8-4.3,7-5.8,3.2-1.5,7.3-2.2,12.3-2.2,3.8,0,7.5.6,11.2,1.7,3.7,1.1,6.7,2.6,8.9,4.5l-1.4,1.9c-2.4-2-5.3-3.4-8.6-4.4-3.3-1-6.7-1.5-10.1-1.5-6.7,0-11.5,1.3-14.5,3.9-3,2.6-4.5,5.8-4.5,9.5,0,3,.8,5.3,2.2,7.1,1.5,1.8,3.5,3.1,5.9,4,2.5.9,5.2,1.7,8.2,2.2,3,.5,5.9,1.1,8.9,1.8,2.9.6,5.6,1.5,8.1,2.6,2.5,1.1,4.4,2.6,5.9,4.5,1.5,1.9,2.2,4.5,2.2,7.8,0,3.1-.8,5.8-2.5,8.2-1.6,2.4-4.1,4.3-7.5,5.6-3.3,1.3-7.5,2-12.6,2Z"/>
</svg>