<?xml version="1.0" encoding="UTF-8"?>
<svg id="Layer_1" xmlns="http://www.w3.org/2000/svg" version="1.1" viewBox="0 0 1000 271.9">
  <!-- Generator: Adobe Illustrator 29.0.0, SVG Export Plug-In . SVG Version: 2.1.0 Build 186)  -->
  <g id="logo">
    <path id="PEPSI" d="M288.3,46.5h154.5v44.1h-93.3v22.8h73.4v42.5h-73.4v22.8h94.4v44.1h-155.6V46.5ZM835.7,222.9h62.4V43.7l-61.9,21.9-.4,157.3ZM636.7,184.2c11.6,30.2,46.3,44.6,98,44.6s83.6-21.1,83.6-58.5c0-64.7-109.8-48.7-109.8-72.3s7.9-12,22-12,30.1,6.2,34.1,18.8l49.6-18.8c-6.2-24.7-31.1-43.5-85.5-43.5s-79.7,19.8-79.7,56.1c0,67.5,109.8,50.1,109.8,75.1s-7.8,12-24.4,12c-25,0-41.7-6.2-48.5-20.1l-49.2,18.5ZM206.8,172.9l-44,16.4v33.6h-61.3V46.5h95.4c49.6,0,74.3,21.3,74.3,59.1s-27.3,53.6-64.5,67.2ZM187.6,90.6h-24.8v52.9l23.2-9.4c14.8-5.6,23.2-12.1,23.2-25.8s-7.9-17.7-21.5-17.7ZM573.7,172.9l-44,16.4v33.6h-61.3V46.5h95.4c49.6,0,74.3,21.3,74.3,59.1s-27.3,53.6-64.5,67.2ZM554.5,90.6h-24.8v52.9l23.2-9.4c14.8-5.6,23.2-12.1,23.2-25.8s-7.9-17.7-21.5-17.7Z"/>
  </g>
</svg>