<?xml version="1.0" encoding="UTF-8"?>
<svg id="Layer_1" xmlns="http://www.w3.org/2000/svg" version="1.1" viewBox="0 0 471.4 217.2">
  <!-- Generator: Adobe Illustrator 29.0.0, SVG Export Plug-In . SVG Version: 2.1.0 Build 186)  -->
  <defs>
    <style>
      .st0 {
        fill-rule: evenodd;
      }
    </style>
  </defs>
  <polygon points="282.6 28.3 209 28.3 245.8 51.2 282.6 28.3"/>
  <polygon points="208.2 29.7 245 102.4 245 52.5 208.2 29.7"/>
  <polygon points="283.4 29.7 246.6 52.5 246.6 102.4 283.4 29.7"/>
  <path class="st0" d="M325.6,31.4v85.2c0,12.6,4.6,27.1,16.8,28.9l-12.8,17s-22.5-13.2-22.5-38.9V48.2l18.5-16.8ZM195.2,65.3s35.7,72.3,39.2,80.5c3,7.1-1.1,11.7-7.5,18.4-6.4,6.8-19.4,5-19.4,5l3.5,17.9c19.4,1.3,30.3-9.3,37.4-23.2,7.2-13.9,48.4-98.7,48.4-98.7h-22.4c0,0-28.4,60.6-28.4,60.6l-28.3-60.5h-22.5M150.3,48.2v17h-12v19.2h12v39.1c0,25.8,22.5,38.9,22.5,38.9l12.8-17c-12.3-1.8-16.8-16.3-16.8-28.9v-32.2h14.4v-19.2h-14.4V31.4l-18.5,16.8ZM130,65.3H56.4c-12.3,0-32.7,7.6-32.7,29.4s15,25.4,29.3,25.4h38.9c7.1,0,17,.5,17,11.7s-3.3,12.6-13.3,12.6H24v19h78.4c13.2,0,30-9.5,30-30s-7.9-30.9-32.4-30.9h-41.5c-6.6,0-12.6-2.2-12.6-8.8s1.8-9.3,9.1-9.3h63.1l11.9-19.2ZM395.6,59.9c28.8,0,52.2,22.7,52.2,50.6s-23.4,50.6-52.2,50.6-52.2-22.6-52.2-50.6,23.4-50.6,52.2-50.6M395.6,144.8c15.6,0,28.3-15.3,28.3-34.2s-12.6-34.2-28.3-34.2-28.2,15.4-28.2,34.2,12.7,34.2,28.2,34.2"/>
</svg>